<mxfile host="app.diagrams.net" modified="2024-03-23T07:08:24.166Z" agent="Mozilla/5.0 (Macintosh; Intel Mac OS X 10_15_7) AppleWebKit/537.36 (KHTML, like Gecko) Chrome/122.0.0.0 Safari/537.36" etag="Mc1t6_Mn_KuAMW7MXM89" version="24.0.7" type="github">
  <diagram id="UJfnqa16FPFxeTNqQk0E" name="Page-1">
    <mxGraphModel dx="979" dy="761" grid="1" gridSize="10" guides="1" tooltips="1" connect="1" arrows="1" fold="1" page="1" pageScale="1" pageWidth="827" pageHeight="1169" math="0" shadow="0">
      <root>
        <mxCell id="0" />
        <mxCell id="1" parent="0" />
        <mxCell id="Q5UJTFhfFlcfxcYRVWW--1" style="edgeStyle=orthogonalEdgeStyle;rounded=0;orthogonalLoop=1;jettySize=auto;html=1;exitX=0.5;exitY=1;exitDx=0;exitDy=0;entryX=0.5;entryY=0;entryDx=0;entryDy=0;sketch=1;curveFitting=1;jiggle=2;" parent="1" source="Q5UJTFhfFlcfxcYRVWW--2" target="Q5UJTFhfFlcfxcYRVWW--32" edge="1">
          <mxGeometry relative="1" as="geometry" />
        </mxCell>
        <mxCell id="Q5UJTFhfFlcfxcYRVWW--2" value="&lt;font style=&quot;font-size: 18px&quot;&gt;IOS&lt;/font&gt;" style="rounded=0;whiteSpace=wrap;html=1;fillColor=#dae8fc;strokeColor=#6c8ebf;sketch=1;curveFitting=1;jiggle=2;" parent="1" vertex="1">
          <mxGeometry x="230" y="90" width="80" height="40" as="geometry" />
        </mxCell>
        <mxCell id="Q5UJTFhfFlcfxcYRVWW--3" style="edgeStyle=orthogonalEdgeStyle;rounded=0;orthogonalLoop=1;jettySize=auto;html=1;exitX=0.5;exitY=1;exitDx=0;exitDy=0;entryX=0.5;entryY=0;entryDx=0;entryDy=0;sketch=1;curveFitting=1;jiggle=2;" parent="1" source="Q5UJTFhfFlcfxcYRVWW--4" target="Q5UJTFhfFlcfxcYRVWW--32" edge="1">
          <mxGeometry relative="1" as="geometry" />
        </mxCell>
        <mxCell id="Q5UJTFhfFlcfxcYRVWW--4" value="&lt;font style=&quot;font-size: 18px&quot;&gt;Android&lt;/font&gt;" style="rounded=0;whiteSpace=wrap;html=1;fillColor=#dae8fc;strokeColor=#6c8ebf;sketch=1;curveFitting=1;jiggle=2;" parent="1" vertex="1">
          <mxGeometry x="360" y="90" width="80" height="40" as="geometry" />
        </mxCell>
        <mxCell id="Q5UJTFhfFlcfxcYRVWW--5" style="edgeStyle=orthogonalEdgeStyle;rounded=0;orthogonalLoop=1;jettySize=auto;html=1;exitX=0.5;exitY=1;exitDx=0;exitDy=0;sketch=1;curveFitting=1;jiggle=2;" parent="1" source="Q5UJTFhfFlcfxcYRVWW--6" edge="1">
          <mxGeometry relative="1" as="geometry">
            <mxPoint x="400" y="185" as="targetPoint" />
          </mxGeometry>
        </mxCell>
        <mxCell id="Q5UJTFhfFlcfxcYRVWW--6" value="&lt;span style=&quot;font-size: 18px&quot;&gt;小程序&lt;/span&gt;" style="rounded=0;whiteSpace=wrap;html=1;fillColor=#dae8fc;strokeColor=#6c8ebf;sketch=1;curveFitting=1;jiggle=2;" parent="1" vertex="1">
          <mxGeometry x="490" y="90" width="80" height="40" as="geometry" />
        </mxCell>
        <mxCell id="Q5UJTFhfFlcfxcYRVWW--7" style="edgeStyle=orthogonalEdgeStyle;rounded=0;orthogonalLoop=1;jettySize=auto;html=1;exitX=0.5;exitY=1;exitDx=0;exitDy=0;entryX=0.5;entryY=0;entryDx=0;entryDy=0;entryPerimeter=0;fontSize=18;sketch=1;curveFitting=1;jiggle=2;fillColor=#d5e8d4;strokeColor=#82b366;" parent="1" source="Q5UJTFhfFlcfxcYRVWW--8" target="Q5UJTFhfFlcfxcYRVWW--15" edge="1">
          <mxGeometry relative="1" as="geometry" />
        </mxCell>
        <mxCell id="Q5UJTFhfFlcfxcYRVWW--8" value="&lt;font style=&quot;font-size: 18px&quot;&gt;zzYpmallLogic&lt;/font&gt;" style="rounded=0;whiteSpace=wrap;html=1;fillColor=#ffe6cc;strokeColor=#d79b00;sketch=1;curveFitting=1;jiggle=2;" parent="1" vertex="1">
          <mxGeometry x="135" y="292" width="130" height="40" as="geometry" />
        </mxCell>
        <mxCell id="Q5UJTFhfFlcfxcYRVWW--9" style="edgeStyle=orthogonalEdgeStyle;rounded=0;orthogonalLoop=1;jettySize=auto;html=1;exitX=0.5;exitY=1;exitDx=0;exitDy=0;entryX=0.5;entryY=0;entryDx=0;entryDy=0;entryPerimeter=0;fontSize=18;sketch=1;curveFitting=1;jiggle=2;fillColor=#d5e8d4;strokeColor=#82b366;" parent="1" source="Q5UJTFhfFlcfxcYRVWW--10" target="Q5UJTFhfFlcfxcYRVWW--21" edge="1">
          <mxGeometry relative="1" as="geometry" />
        </mxCell>
        <mxCell id="Q5UJTFhfFlcfxcYRVWW--10" value="&lt;font style=&quot;font-size: 18px&quot;&gt;zzBookLogic&lt;/font&gt;" style="rounded=0;whiteSpace=wrap;html=1;fillColor=#ffe6cc;strokeColor=#d79b00;sketch=1;curveFitting=1;jiggle=2;" parent="1" vertex="1">
          <mxGeometry x="525" y="292" width="130" height="40" as="geometry" />
        </mxCell>
        <mxCell id="Q5UJTFhfFlcfxcYRVWW--11" style="edgeStyle=orthogonalEdgeStyle;rounded=0;orthogonalLoop=1;jettySize=auto;html=1;exitX=0.5;exitY=1;exitDx=0;exitDy=0;entryX=0.5;entryY=0;entryDx=0;entryDy=0;entryPerimeter=0;fontSize=18;sketch=1;curveFitting=1;jiggle=2;fillColor=#d5e8d4;strokeColor=#82b366;" parent="1" source="Q5UJTFhfFlcfxcYRVWW--12" target="Q5UJTFhfFlcfxcYRVWW--17" edge="1">
          <mxGeometry relative="1" as="geometry" />
        </mxCell>
        <mxCell id="Q5UJTFhfFlcfxcYRVWW--12" value="&lt;font style=&quot;font-size: 18px&quot;&gt;zzuser&lt;/font&gt;" style="rounded=0;whiteSpace=wrap;html=1;fillColor=#e1d5e7;strokeColor=#9673a6;sketch=1;curveFitting=1;jiggle=2;" parent="1" vertex="1">
          <mxGeometry x="267" y="393" width="80" height="40" as="geometry" />
        </mxCell>
        <mxCell id="Q5UJTFhfFlcfxcYRVWW--13" style="edgeStyle=orthogonalEdgeStyle;rounded=0;orthogonalLoop=1;jettySize=auto;html=1;exitX=0.5;exitY=1;exitDx=0;exitDy=0;entryX=0.5;entryY=0;entryDx=0;entryDy=0;entryPerimeter=0;fontSize=18;sketch=1;curveFitting=1;jiggle=2;fillColor=#d5e8d4;strokeColor=#82b366;" parent="1" source="Q5UJTFhfFlcfxcYRVWW--14" target="Q5UJTFhfFlcfxcYRVWW--19" edge="1">
          <mxGeometry relative="1" as="geometry" />
        </mxCell>
        <mxCell id="Q5UJTFhfFlcfxcYRVWW--14" value="&lt;font style=&quot;font-size: 18px&quot;&gt;zzproduct&lt;/font&gt;" style="rounded=0;whiteSpace=wrap;html=1;fillColor=#e1d5e7;strokeColor=#9673a6;sketch=1;curveFitting=1;jiggle=2;" parent="1" vertex="1">
          <mxGeometry x="456" y="393" width="80" height="40" as="geometry" />
        </mxCell>
        <mxCell id="Q5UJTFhfFlcfxcYRVWW--15" value="" style="shape=cylinder3;whiteSpace=wrap;html=1;boundedLbl=1;backgroundOutline=1;size=15;fontSize=18;fillColor=#b1ddf0;strokeColor=#10739e;sketch=1;curveFitting=1;jiggle=2;" parent="1" vertex="1">
          <mxGeometry x="180" y="468" width="40" height="60" as="geometry" />
        </mxCell>
        <mxCell id="Q5UJTFhfFlcfxcYRVWW--16" value="zzYpmallDB" style="text;html=1;align=center;verticalAlign=middle;resizable=0;points=[];autosize=1;strokeColor=none;fillColor=none;fontSize=18;sketch=1;curveFitting=1;jiggle=2;" parent="1" vertex="1">
          <mxGeometry x="145" y="523" width="110" height="30" as="geometry" />
        </mxCell>
        <mxCell id="Q5UJTFhfFlcfxcYRVWW--17" value="" style="shape=cylinder3;whiteSpace=wrap;html=1;boundedLbl=1;backgroundOutline=1;size=15;fontSize=18;fillColor=#b1ddf0;strokeColor=#10739e;sketch=1;curveFitting=1;jiggle=2;" parent="1" vertex="1">
          <mxGeometry x="287" y="468" width="40" height="60" as="geometry" />
        </mxCell>
        <mxCell id="Q5UJTFhfFlcfxcYRVWW--18" value="zzuserDB" style="text;html=1;align=center;verticalAlign=middle;resizable=0;points=[];autosize=1;strokeColor=none;fillColor=none;fontSize=18;sketch=1;curveFitting=1;jiggle=2;" parent="1" vertex="1">
          <mxGeometry x="262" y="523" width="90" height="30" as="geometry" />
        </mxCell>
        <mxCell id="Q5UJTFhfFlcfxcYRVWW--19" value="" style="shape=cylinder3;whiteSpace=wrap;html=1;boundedLbl=1;backgroundOutline=1;size=15;fontSize=18;fillColor=#b1ddf0;strokeColor=#10739e;sketch=1;curveFitting=1;jiggle=2;" parent="1" vertex="1">
          <mxGeometry x="476" y="468" width="40" height="60" as="geometry" />
        </mxCell>
        <mxCell id="Q5UJTFhfFlcfxcYRVWW--20" value="zzproductDB" style="text;html=1;align=center;verticalAlign=middle;resizable=0;points=[];autosize=1;strokeColor=none;fillColor=none;fontSize=18;sketch=1;curveFitting=1;jiggle=2;" parent="1" vertex="1">
          <mxGeometry x="440" y="523" width="120" height="30" as="geometry" />
        </mxCell>
        <mxCell id="Q5UJTFhfFlcfxcYRVWW--21" value="" style="shape=cylinder3;whiteSpace=wrap;html=1;boundedLbl=1;backgroundOutline=1;size=15;fontSize=18;fillColor=#b1ddf0;strokeColor=#10739e;sketch=1;curveFitting=1;jiggle=2;" parent="1" vertex="1">
          <mxGeometry x="570" y="468" width="40" height="60" as="geometry" />
        </mxCell>
        <mxCell id="Q5UJTFhfFlcfxcYRVWW--22" value="zzBookDB" style="text;html=1;align=center;verticalAlign=middle;resizable=0;points=[];autosize=1;strokeColor=none;fillColor=none;fontSize=18;sketch=1;curveFitting=1;jiggle=2;" parent="1" vertex="1">
          <mxGeometry x="548" y="523" width="100" height="30" as="geometry" />
        </mxCell>
        <mxCell id="Q5UJTFhfFlcfxcYRVWW--23" value="&lt;span style=&quot;font-size: 18px&quot;&gt;注册中心&lt;br&gt;&lt;br&gt;管理平台&lt;br&gt;&lt;br&gt;MQ平台&lt;br&gt;&lt;/span&gt;" style="rounded=0;whiteSpace=wrap;html=1;fillColor=#d5e8d4;strokeColor=#82b366;sketch=1;curveFitting=1;jiggle=2;" parent="1" vertex="1">
          <mxGeometry x="40" y="155" width="80" height="390" as="geometry" />
        </mxCell>
        <mxCell id="Q5UJTFhfFlcfxcYRVWW--24" value="&lt;span style=&quot;font-size: 18px&quot;&gt;监控中心&lt;br&gt;&lt;br&gt;配置中心&lt;br&gt;&lt;br&gt;调度平台&lt;br&gt;&lt;/span&gt;" style="rounded=0;whiteSpace=wrap;html=1;fillColor=#d5e8d4;strokeColor=#82b366;sketch=1;curveFitting=1;jiggle=2;" parent="1" vertex="1">
          <mxGeometry x="670" y="155" width="80" height="390" as="geometry" />
        </mxCell>
        <mxCell id="Q5UJTFhfFlcfxcYRVWW--25" value="" style="endArrow=classic;html=1;rounded=0;fontSize=18;exitX=0.5;exitY=1;exitDx=0;exitDy=0;entryX=0.5;entryY=0;entryDx=0;entryDy=0;sketch=1;curveFitting=1;jiggle=2;fillColor=#d5e8d4;strokeColor=#82b366;" parent="1" source="Q5UJTFhfFlcfxcYRVWW--8" target="Q5UJTFhfFlcfxcYRVWW--12" edge="1">
          <mxGeometry width="50" height="50" relative="1" as="geometry">
            <mxPoint x="260" y="655" as="sourcePoint" />
            <mxPoint x="310" y="605" as="targetPoint" />
          </mxGeometry>
        </mxCell>
        <mxCell id="Q5UJTFhfFlcfxcYRVWW--26" value="" style="endArrow=classic;html=1;rounded=0;fontSize=18;exitX=0.5;exitY=1;exitDx=0;exitDy=0;entryX=0.5;entryY=0;entryDx=0;entryDy=0;sketch=1;curveFitting=1;jiggle=2;fillColor=#d5e8d4;strokeColor=#82b366;" parent="1" source="Q5UJTFhfFlcfxcYRVWW--8" target="Q5UJTFhfFlcfxcYRVWW--14" edge="1">
          <mxGeometry width="50" height="50" relative="1" as="geometry">
            <mxPoint x="210" y="342" as="sourcePoint" />
            <mxPoint x="330" y="403" as="targetPoint" />
          </mxGeometry>
        </mxCell>
        <mxCell id="Q5UJTFhfFlcfxcYRVWW--27" value="" style="endArrow=classic;html=1;rounded=0;fontSize=18;exitX=0.5;exitY=1;exitDx=0;exitDy=0;entryX=0.5;entryY=0;entryDx=0;entryDy=0;sketch=1;curveFitting=1;jiggle=2;fillColor=#d5e8d4;strokeColor=#82b366;" parent="1" source="Q5UJTFhfFlcfxcYRVWW--10" target="Q5UJTFhfFlcfxcYRVWW--14" edge="1">
          <mxGeometry width="50" height="50" relative="1" as="geometry">
            <mxPoint x="210" y="342" as="sourcePoint" />
            <mxPoint x="480" y="403" as="targetPoint" />
          </mxGeometry>
        </mxCell>
        <mxCell id="Q5UJTFhfFlcfxcYRVWW--28" value="" style="endArrow=classic;html=1;rounded=0;fontSize=18;exitX=0.5;exitY=1;exitDx=0;exitDy=0;entryX=0.5;entryY=0;entryDx=0;entryDy=0;sketch=1;curveFitting=1;jiggle=2;fillColor=#d5e8d4;strokeColor=#82b366;" parent="1" source="Q5UJTFhfFlcfxcYRVWW--10" target="Q5UJTFhfFlcfxcYRVWW--12" edge="1">
          <mxGeometry width="50" height="50" relative="1" as="geometry">
            <mxPoint x="610" y="375" as="sourcePoint" />
            <mxPoint x="350" y="312" as="targetPoint" />
          </mxGeometry>
        </mxCell>
        <mxCell id="Q5UJTFhfFlcfxcYRVWW--29" style="edgeStyle=orthogonalEdgeStyle;rounded=0;orthogonalLoop=1;jettySize=auto;html=1;exitX=0.5;exitY=1;exitDx=0;exitDy=0;fontSize=18;sketch=1;curveFitting=1;jiggle=2;fillColor=#d5e8d4;strokeColor=#82b366;" parent="1" source="Q5UJTFhfFlcfxcYRVWW--32" target="Q5UJTFhfFlcfxcYRVWW--34" edge="1">
          <mxGeometry relative="1" as="geometry" />
        </mxCell>
        <mxCell id="Q5UJTFhfFlcfxcYRVWW--30" style="edgeStyle=orthogonalEdgeStyle;rounded=0;orthogonalLoop=1;jettySize=auto;html=1;exitX=0.5;exitY=1;exitDx=0;exitDy=0;entryX=0.5;entryY=0;entryDx=0;entryDy=0;sketch=1;curveFitting=1;jiggle=2;fillColor=#d5e8d4;strokeColor=#82b366;" parent="1" source="Q5UJTFhfFlcfxcYRVWW--32" target="Q5UJTFhfFlcfxcYRVWW--8" edge="1">
          <mxGeometry relative="1" as="geometry" />
        </mxCell>
        <mxCell id="Q5UJTFhfFlcfxcYRVWW--31" style="edgeStyle=orthogonalEdgeStyle;rounded=0;orthogonalLoop=1;jettySize=auto;html=1;exitX=0.5;exitY=1;exitDx=0;exitDy=0;entryX=0.5;entryY=0;entryDx=0;entryDy=0;sketch=1;curveFitting=1;jiggle=2;fillColor=#d5e8d4;strokeColor=#82b366;" parent="1" source="Q5UJTFhfFlcfxcYRVWW--32" target="Q5UJTFhfFlcfxcYRVWW--10" edge="1">
          <mxGeometry relative="1" as="geometry" />
        </mxCell>
        <mxCell id="Q5UJTFhfFlcfxcYRVWW--32" value="&lt;font style=&quot;font-size: 18px&quot;&gt;zzGateWay&lt;/font&gt;" style="rounded=0;whiteSpace=wrap;html=1;fillColor=#d5e8d4;strokeColor=#82b366;sketch=1;curveFitting=1;jiggle=2;" parent="1" vertex="1">
          <mxGeometry x="200" y="185" width="400" height="40" as="geometry" />
        </mxCell>
        <mxCell id="Q5UJTFhfFlcfxcYRVWW--33" style="edgeStyle=orthogonalEdgeStyle;rounded=0;orthogonalLoop=1;jettySize=auto;html=1;exitX=0.5;exitY=1;exitDx=0;exitDy=0;entryX=0.5;entryY=0;entryDx=0;entryDy=0;entryPerimeter=0;sketch=1;curveFitting=1;jiggle=2;fillColor=#d5e8d4;strokeColor=#82b366;" parent="1" source="Q5UJTFhfFlcfxcYRVWW--34" target="Q5UJTFhfFlcfxcYRVWW--35" edge="1">
          <mxGeometry relative="1" as="geometry" />
        </mxCell>
        <mxCell id="Q5UJTFhfFlcfxcYRVWW--34" value="&lt;font style=&quot;font-size: 18px&quot;&gt;zzGameLogic&lt;/font&gt;" style="rounded=0;whiteSpace=wrap;html=1;fillColor=#ffe6cc;strokeColor=#d79b00;sketch=1;curveFitting=1;jiggle=2;" parent="1" vertex="1">
          <mxGeometry x="335" y="292" width="130" height="40" as="geometry" />
        </mxCell>
        <mxCell id="Q5UJTFhfFlcfxcYRVWW--35" value="" style="shape=cylinder3;whiteSpace=wrap;html=1;boundedLbl=1;backgroundOutline=1;size=15;fontSize=18;fillColor=#b1ddf0;strokeColor=#10739e;sketch=1;curveFitting=1;jiggle=2;" parent="1" vertex="1">
          <mxGeometry x="380" y="468" width="40" height="60" as="geometry" />
        </mxCell>
        <mxCell id="Q5UJTFhfFlcfxcYRVWW--36" value="zzgameDB" style="text;html=1;align=center;verticalAlign=middle;resizable=0;points=[];autosize=1;strokeColor=none;fillColor=none;fontSize=18;sketch=1;curveFitting=1;jiggle=2;" parent="1" vertex="1">
          <mxGeometry x="350" y="523" width="100" height="30" as="geometry" />
        </mxCell>
        <mxCell id="Q5UJTFhfFlcfxcYRVWW--37" value="" style="endArrow=classic;html=1;rounded=0;fontSize=18;exitX=0.5;exitY=1;exitDx=0;exitDy=0;entryX=0.5;entryY=0;entryDx=0;entryDy=0;sketch=1;curveFitting=1;jiggle=2;fillColor=#d5e8d4;strokeColor=#82b366;" parent="1" source="Q5UJTFhfFlcfxcYRVWW--34" target="Q5UJTFhfFlcfxcYRVWW--14" edge="1">
          <mxGeometry width="50" height="50" relative="1" as="geometry">
            <mxPoint x="210" y="342" as="sourcePoint" />
            <mxPoint x="503" y="403" as="targetPoint" />
          </mxGeometry>
        </mxCell>
        <mxCell id="Q5UJTFhfFlcfxcYRVWW--38" value="" style="endArrow=classic;html=1;rounded=0;fontSize=18;exitX=0.5;exitY=1;exitDx=0;exitDy=0;entryX=0.5;entryY=0;entryDx=0;entryDy=0;sketch=1;curveFitting=1;jiggle=2;fillColor=#d5e8d4;strokeColor=#82b366;" parent="1" source="Q5UJTFhfFlcfxcYRVWW--34" target="Q5UJTFhfFlcfxcYRVWW--12" edge="1">
          <mxGeometry width="50" height="50" relative="1" as="geometry">
            <mxPoint x="600" y="342" as="sourcePoint" />
            <mxPoint x="317" y="403" as="targetPoint" />
          </mxGeometry>
        </mxCell>
        <mxCell id="Q5UJTFhfFlcfxcYRVWW--39" style="edgeStyle=orthogonalEdgeStyle;rounded=0;orthogonalLoop=1;jettySize=auto;html=1;exitX=0.5;exitY=1;exitDx=0;exitDy=0;entryX=0.5;entryY=0;entryDx=0;entryDy=0;" parent="1" source="Q5UJTFhfFlcfxcYRVWW--40" target="Q5UJTFhfFlcfxcYRVWW--70" edge="1">
          <mxGeometry relative="1" as="geometry" />
        </mxCell>
        <mxCell id="Q5UJTFhfFlcfxcYRVWW--40" value="&lt;font style=&quot;font-size: 18px&quot;&gt;IOS&lt;/font&gt;" style="rounded=0;whiteSpace=wrap;html=1;fillColor=#dae8fc;strokeColor=#6c8ebf;" parent="1" vertex="1">
          <mxGeometry x="1200" y="55" width="80" height="40" as="geometry" />
        </mxCell>
        <mxCell id="Q5UJTFhfFlcfxcYRVWW--41" style="edgeStyle=orthogonalEdgeStyle;rounded=0;orthogonalLoop=1;jettySize=auto;html=1;exitX=0.5;exitY=1;exitDx=0;exitDy=0;entryX=0.5;entryY=0;entryDx=0;entryDy=0;" parent="1" source="Q5UJTFhfFlcfxcYRVWW--42" target="Q5UJTFhfFlcfxcYRVWW--70" edge="1">
          <mxGeometry relative="1" as="geometry" />
        </mxCell>
        <mxCell id="Q5UJTFhfFlcfxcYRVWW--42" value="&lt;font style=&quot;font-size: 18px&quot;&gt;Android&lt;/font&gt;" style="rounded=0;whiteSpace=wrap;html=1;fillColor=#dae8fc;strokeColor=#6c8ebf;" parent="1" vertex="1">
          <mxGeometry x="1330" y="55" width="80" height="40" as="geometry" />
        </mxCell>
        <mxCell id="Q5UJTFhfFlcfxcYRVWW--43" style="edgeStyle=orthogonalEdgeStyle;rounded=0;orthogonalLoop=1;jettySize=auto;html=1;exitX=0.5;exitY=1;exitDx=0;exitDy=0;" parent="1" source="Q5UJTFhfFlcfxcYRVWW--44" edge="1">
          <mxGeometry relative="1" as="geometry">
            <mxPoint x="1370" y="162" as="targetPoint" />
          </mxGeometry>
        </mxCell>
        <mxCell id="Q5UJTFhfFlcfxcYRVWW--44" value="&lt;span style=&quot;font-size: 18px&quot;&gt;小程序&lt;/span&gt;" style="rounded=0;whiteSpace=wrap;html=1;fillColor=#dae8fc;strokeColor=#6c8ebf;" parent="1" vertex="1">
          <mxGeometry x="1460" y="55" width="80" height="40" as="geometry" />
        </mxCell>
        <mxCell id="Q5UJTFhfFlcfxcYRVWW--45" style="edgeStyle=orthogonalEdgeStyle;rounded=0;orthogonalLoop=1;jettySize=auto;html=1;exitX=0.5;exitY=1;exitDx=0;exitDy=0;entryX=0.5;entryY=0;entryDx=0;entryDy=0;entryPerimeter=0;fontSize=18;" parent="1" source="Q5UJTFhfFlcfxcYRVWW--46" target="Q5UJTFhfFlcfxcYRVWW--53" edge="1">
          <mxGeometry relative="1" as="geometry" />
        </mxCell>
        <mxCell id="Q5UJTFhfFlcfxcYRVWW--46" value="&lt;font style=&quot;font-size: 18px&quot;&gt;zzYpmallLogic&lt;/font&gt;" style="rounded=0;whiteSpace=wrap;html=1;fillColor=#ffe6cc;strokeColor=#d79b00;" parent="1" vertex="1">
          <mxGeometry x="1105" y="292" width="130" height="40" as="geometry" />
        </mxCell>
        <mxCell id="Q5UJTFhfFlcfxcYRVWW--47" style="edgeStyle=orthogonalEdgeStyle;rounded=0;orthogonalLoop=1;jettySize=auto;html=1;exitX=0.5;exitY=1;exitDx=0;exitDy=0;entryX=0.5;entryY=0;entryDx=0;entryDy=0;entryPerimeter=0;fontSize=18;" parent="1" source="Q5UJTFhfFlcfxcYRVWW--48" target="Q5UJTFhfFlcfxcYRVWW--59" edge="1">
          <mxGeometry relative="1" as="geometry" />
        </mxCell>
        <mxCell id="Q5UJTFhfFlcfxcYRVWW--48" value="&lt;font style=&quot;font-size: 18px&quot;&gt;zzBookLogic&lt;/font&gt;" style="rounded=0;whiteSpace=wrap;html=1;fillColor=#ffe6cc;strokeColor=#d79b00;" parent="1" vertex="1">
          <mxGeometry x="1495" y="292" width="130" height="40" as="geometry" />
        </mxCell>
        <mxCell id="Q5UJTFhfFlcfxcYRVWW--49" style="edgeStyle=orthogonalEdgeStyle;rounded=0;orthogonalLoop=1;jettySize=auto;html=1;exitX=0.5;exitY=1;exitDx=0;exitDy=0;entryX=0.5;entryY=0;entryDx=0;entryDy=0;entryPerimeter=0;fontSize=18;" parent="1" source="Q5UJTFhfFlcfxcYRVWW--50" target="Q5UJTFhfFlcfxcYRVWW--55" edge="1">
          <mxGeometry relative="1" as="geometry" />
        </mxCell>
        <mxCell id="Q5UJTFhfFlcfxcYRVWW--50" value="&lt;font style=&quot;font-size: 18px&quot;&gt;zzuser&lt;/font&gt;" style="rounded=0;whiteSpace=wrap;html=1;fillColor=#e1d5e7;strokeColor=#9673a6;" parent="1" vertex="1">
          <mxGeometry x="1237" y="393" width="80" height="40" as="geometry" />
        </mxCell>
        <mxCell id="Q5UJTFhfFlcfxcYRVWW--51" style="edgeStyle=orthogonalEdgeStyle;rounded=0;orthogonalLoop=1;jettySize=auto;html=1;exitX=0.5;exitY=1;exitDx=0;exitDy=0;entryX=0.5;entryY=0;entryDx=0;entryDy=0;entryPerimeter=0;fontSize=18;" parent="1" source="Q5UJTFhfFlcfxcYRVWW--52" target="Q5UJTFhfFlcfxcYRVWW--57" edge="1">
          <mxGeometry relative="1" as="geometry" />
        </mxCell>
        <mxCell id="Q5UJTFhfFlcfxcYRVWW--52" value="&lt;font style=&quot;font-size: 18px&quot;&gt;zzproduct&lt;/font&gt;" style="rounded=0;whiteSpace=wrap;html=1;fillColor=#e1d5e7;strokeColor=#9673a6;" parent="1" vertex="1">
          <mxGeometry x="1426" y="393" width="80" height="40" as="geometry" />
        </mxCell>
        <mxCell id="Q5UJTFhfFlcfxcYRVWW--53" value="" style="shape=cylinder3;whiteSpace=wrap;html=1;boundedLbl=1;backgroundOutline=1;size=15;fontSize=18;fillColor=#b1ddf0;strokeColor=#10739e;" parent="1" vertex="1">
          <mxGeometry x="1150" y="468" width="40" height="60" as="geometry" />
        </mxCell>
        <mxCell id="Q5UJTFhfFlcfxcYRVWW--54" value="zzYpmallDB" style="text;html=1;align=center;verticalAlign=middle;resizable=0;points=[];autosize=1;strokeColor=none;fillColor=none;fontSize=18;" parent="1" vertex="1">
          <mxGeometry x="1115" y="523" width="110" height="30" as="geometry" />
        </mxCell>
        <mxCell id="Q5UJTFhfFlcfxcYRVWW--55" value="" style="shape=cylinder3;whiteSpace=wrap;html=1;boundedLbl=1;backgroundOutline=1;size=15;fontSize=18;fillColor=#b1ddf0;strokeColor=#10739e;" parent="1" vertex="1">
          <mxGeometry x="1257" y="468" width="40" height="60" as="geometry" />
        </mxCell>
        <mxCell id="Q5UJTFhfFlcfxcYRVWW--56" value="zzuserDB" style="text;html=1;align=center;verticalAlign=middle;resizable=0;points=[];autosize=1;strokeColor=none;fillColor=none;fontSize=18;" parent="1" vertex="1">
          <mxGeometry x="1232" y="523" width="90" height="30" as="geometry" />
        </mxCell>
        <mxCell id="Q5UJTFhfFlcfxcYRVWW--57" value="" style="shape=cylinder3;whiteSpace=wrap;html=1;boundedLbl=1;backgroundOutline=1;size=15;fontSize=18;fillColor=#b1ddf0;strokeColor=#10739e;" parent="1" vertex="1">
          <mxGeometry x="1446" y="468" width="40" height="60" as="geometry" />
        </mxCell>
        <mxCell id="Q5UJTFhfFlcfxcYRVWW--58" value="zzproductDB" style="text;html=1;align=center;verticalAlign=middle;resizable=0;points=[];autosize=1;strokeColor=none;fillColor=none;fontSize=18;" parent="1" vertex="1">
          <mxGeometry x="1410" y="523" width="120" height="30" as="geometry" />
        </mxCell>
        <mxCell id="Q5UJTFhfFlcfxcYRVWW--59" value="" style="shape=cylinder3;whiteSpace=wrap;html=1;boundedLbl=1;backgroundOutline=1;size=15;fontSize=18;fillColor=#b1ddf0;strokeColor=#10739e;" parent="1" vertex="1">
          <mxGeometry x="1540" y="468" width="40" height="60" as="geometry" />
        </mxCell>
        <mxCell id="Q5UJTFhfFlcfxcYRVWW--60" value="zzBookDB" style="text;html=1;align=center;verticalAlign=middle;resizable=0;points=[];autosize=1;strokeColor=none;fillColor=none;fontSize=18;" parent="1" vertex="1">
          <mxGeometry x="1518" y="523" width="100" height="30" as="geometry" />
        </mxCell>
        <mxCell id="Q5UJTFhfFlcfxcYRVWW--61" value="&lt;span style=&quot;font-size: 18px&quot;&gt;注册中心&lt;br&gt;&lt;br&gt;配置中心&lt;br&gt;&lt;br&gt;管理平台&lt;br&gt;&lt;br&gt;MQ平台&lt;br&gt;&lt;br&gt;调度平台&lt;br&gt;&lt;/span&gt;" style="rounded=0;whiteSpace=wrap;html=1;fillColor=#f8cecc;strokeColor=#b85450;" parent="1" vertex="1">
          <mxGeometry x="1010" y="240" width="80" height="305" as="geometry" />
        </mxCell>
        <mxCell id="Q5UJTFhfFlcfxcYRVWW--63" value="" style="endArrow=classic;html=1;rounded=0;fontSize=18;exitX=0.5;exitY=1;exitDx=0;exitDy=0;entryX=0.5;entryY=0;entryDx=0;entryDy=0;" parent="1" source="Q5UJTFhfFlcfxcYRVWW--46" target="Q5UJTFhfFlcfxcYRVWW--50" edge="1">
          <mxGeometry width="50" height="50" relative="1" as="geometry">
            <mxPoint x="1230" y="655" as="sourcePoint" />
            <mxPoint x="1280" y="605" as="targetPoint" />
          </mxGeometry>
        </mxCell>
        <mxCell id="Q5UJTFhfFlcfxcYRVWW--64" value="" style="endArrow=classic;html=1;rounded=0;fontSize=18;exitX=0.5;exitY=1;exitDx=0;exitDy=0;entryX=0.5;entryY=0;entryDx=0;entryDy=0;" parent="1" source="Q5UJTFhfFlcfxcYRVWW--46" target="Q5UJTFhfFlcfxcYRVWW--52" edge="1">
          <mxGeometry width="50" height="50" relative="1" as="geometry">
            <mxPoint x="1180" y="342" as="sourcePoint" />
            <mxPoint x="1300" y="403" as="targetPoint" />
          </mxGeometry>
        </mxCell>
        <mxCell id="Q5UJTFhfFlcfxcYRVWW--65" value="" style="endArrow=classic;html=1;rounded=0;fontSize=18;exitX=0.5;exitY=1;exitDx=0;exitDy=0;entryX=0.5;entryY=0;entryDx=0;entryDy=0;" parent="1" source="Q5UJTFhfFlcfxcYRVWW--48" target="Q5UJTFhfFlcfxcYRVWW--52" edge="1">
          <mxGeometry width="50" height="50" relative="1" as="geometry">
            <mxPoint x="1180" y="342" as="sourcePoint" />
            <mxPoint x="1450" y="403" as="targetPoint" />
          </mxGeometry>
        </mxCell>
        <mxCell id="Q5UJTFhfFlcfxcYRVWW--66" value="" style="endArrow=classic;html=1;rounded=0;fontSize=18;exitX=0.5;exitY=1;exitDx=0;exitDy=0;entryX=0.5;entryY=0;entryDx=0;entryDy=0;" parent="1" source="Q5UJTFhfFlcfxcYRVWW--48" target="Q5UJTFhfFlcfxcYRVWW--50" edge="1">
          <mxGeometry width="50" height="50" relative="1" as="geometry">
            <mxPoint x="1580" y="375" as="sourcePoint" />
            <mxPoint x="1320" y="312" as="targetPoint" />
          </mxGeometry>
        </mxCell>
        <mxCell id="Q5UJTFhfFlcfxcYRVWW--67" style="edgeStyle=orthogonalEdgeStyle;rounded=0;orthogonalLoop=1;jettySize=auto;html=1;exitX=0.5;exitY=1;exitDx=0;exitDy=0;fontSize=18;" parent="1" source="Q5UJTFhfFlcfxcYRVWW--70" target="Q5UJTFhfFlcfxcYRVWW--72" edge="1">
          <mxGeometry relative="1" as="geometry" />
        </mxCell>
        <mxCell id="Q5UJTFhfFlcfxcYRVWW--68" style="edgeStyle=orthogonalEdgeStyle;rounded=0;orthogonalLoop=1;jettySize=auto;html=1;exitX=0.5;exitY=1;exitDx=0;exitDy=0;entryX=0.5;entryY=0;entryDx=0;entryDy=0;" parent="1" source="Q5UJTFhfFlcfxcYRVWW--70" target="Q5UJTFhfFlcfxcYRVWW--46" edge="1">
          <mxGeometry relative="1" as="geometry" />
        </mxCell>
        <mxCell id="Q5UJTFhfFlcfxcYRVWW--69" style="edgeStyle=orthogonalEdgeStyle;rounded=0;orthogonalLoop=1;jettySize=auto;html=1;exitX=0.5;exitY=1;exitDx=0;exitDy=0;entryX=0.5;entryY=0;entryDx=0;entryDy=0;" parent="1" source="Q5UJTFhfFlcfxcYRVWW--70" target="Q5UJTFhfFlcfxcYRVWW--48" edge="1">
          <mxGeometry relative="1" as="geometry" />
        </mxCell>
        <mxCell id="Q5UJTFhfFlcfxcYRVWW--70" value="&lt;font style=&quot;font-size: 18px&quot;&gt;zzGateWay&lt;/font&gt;" style="rounded=0;whiteSpace=wrap;html=1;fillColor=#d5e8d4;strokeColor=#82b366;" parent="1" vertex="1">
          <mxGeometry x="1170" y="162" width="400" height="40" as="geometry" />
        </mxCell>
        <mxCell id="Q5UJTFhfFlcfxcYRVWW--71" style="edgeStyle=orthogonalEdgeStyle;rounded=0;orthogonalLoop=1;jettySize=auto;html=1;exitX=0.5;exitY=1;exitDx=0;exitDy=0;entryX=0.5;entryY=0;entryDx=0;entryDy=0;entryPerimeter=0;" parent="1" source="Q5UJTFhfFlcfxcYRVWW--72" target="Q5UJTFhfFlcfxcYRVWW--73" edge="1">
          <mxGeometry relative="1" as="geometry" />
        </mxCell>
        <mxCell id="Q5UJTFhfFlcfxcYRVWW--72" value="&lt;font style=&quot;font-size: 18px&quot;&gt;zzGameLogic&lt;/font&gt;" style="rounded=0;whiteSpace=wrap;html=1;fillColor=#ffe6cc;strokeColor=#d79b00;" parent="1" vertex="1">
          <mxGeometry x="1305" y="292" width="130" height="40" as="geometry" />
        </mxCell>
        <mxCell id="Q5UJTFhfFlcfxcYRVWW--73" value="" style="shape=cylinder3;whiteSpace=wrap;html=1;boundedLbl=1;backgroundOutline=1;size=15;fontSize=18;fillColor=#b1ddf0;strokeColor=#10739e;" parent="1" vertex="1">
          <mxGeometry x="1350" y="468" width="40" height="60" as="geometry" />
        </mxCell>
        <mxCell id="Q5UJTFhfFlcfxcYRVWW--74" value="zzgameDB" style="text;html=1;align=center;verticalAlign=middle;resizable=0;points=[];autosize=1;strokeColor=none;fillColor=none;fontSize=18;" parent="1" vertex="1">
          <mxGeometry x="1320" y="523" width="100" height="30" as="geometry" />
        </mxCell>
        <mxCell id="Q5UJTFhfFlcfxcYRVWW--75" value="" style="endArrow=classic;html=1;rounded=0;fontSize=18;exitX=0.5;exitY=1;exitDx=0;exitDy=0;entryX=0.5;entryY=0;entryDx=0;entryDy=0;" parent="1" source="Q5UJTFhfFlcfxcYRVWW--72" target="Q5UJTFhfFlcfxcYRVWW--52" edge="1">
          <mxGeometry width="50" height="50" relative="1" as="geometry">
            <mxPoint x="1180" y="342" as="sourcePoint" />
            <mxPoint x="1473" y="403" as="targetPoint" />
          </mxGeometry>
        </mxCell>
        <mxCell id="Q5UJTFhfFlcfxcYRVWW--76" value="" style="endArrow=classic;html=1;rounded=0;fontSize=18;exitX=0.5;exitY=1;exitDx=0;exitDy=0;entryX=0.5;entryY=0;entryDx=0;entryDy=0;" parent="1" source="Q5UJTFhfFlcfxcYRVWW--72" target="Q5UJTFhfFlcfxcYRVWW--50" edge="1">
          <mxGeometry width="50" height="50" relative="1" as="geometry">
            <mxPoint x="1570" y="342" as="sourcePoint" />
            <mxPoint x="1287" y="403" as="targetPoint" />
          </mxGeometry>
        </mxCell>
        <mxCell id="Q5UJTFhfFlcfxcYRVWW--77" value="" style="shape=curlyBracket;whiteSpace=wrap;html=1;rounded=1;flipH=1;dashed=1;" parent="1" vertex="1">
          <mxGeometry x="1755" y="180" width="41" height="360" as="geometry" />
        </mxCell>
        <mxCell id="Q5UJTFhfFlcfxcYRVWW--78" value="&lt;font style=&quot;font-size: 16px&quot;&gt;内网&lt;/font&gt;" style="text;html=1;align=center;verticalAlign=middle;resizable=0;points=[];autosize=1;strokeColor=none;fillColor=none;" parent="1" vertex="1">
          <mxGeometry x="1786" y="350" width="50" height="20" as="geometry" />
        </mxCell>
        <mxCell id="Q5UJTFhfFlcfxcYRVWW--79" value="&lt;span style=&quot;background-color: rgb(255 , 255 , 255)&quot;&gt;&lt;b&gt;用户端层&lt;/b&gt;&lt;/span&gt;" style="text;html=1;align=center;verticalAlign=middle;resizable=0;points=[];autosize=1;strokeColor=none;fillColor=none;fontSize=16;" parent="1" vertex="1">
          <mxGeometry x="1655" y="65" width="80" height="20" as="geometry" />
        </mxCell>
        <mxCell id="Q5UJTFhfFlcfxcYRVWW--80" value="&lt;span style=&quot;background-color: rgb(255 , 255 , 255)&quot;&gt;&lt;b&gt;网关层&lt;/b&gt;&lt;/span&gt;" style="text;html=1;align=center;verticalAlign=middle;resizable=0;points=[];autosize=1;strokeColor=none;fillColor=none;fontSize=16;" parent="1" vertex="1">
          <mxGeometry x="1665" y="172" width="60" height="20" as="geometry" />
        </mxCell>
        <mxCell id="Q5UJTFhfFlcfxcYRVWW--81" value="&lt;span style=&quot;background-color: rgb(255 , 255 , 255)&quot;&gt;&lt;b&gt;业务逻辑层&lt;/b&gt;&lt;/span&gt;" style="text;html=1;align=center;verticalAlign=middle;resizable=0;points=[];autosize=1;strokeColor=none;fillColor=none;fontSize=16;" parent="1" vertex="1">
          <mxGeometry x="1655" y="302" width="100" height="20" as="geometry" />
        </mxCell>
        <mxCell id="Q5UJTFhfFlcfxcYRVWW--82" value="&lt;span style=&quot;background-color: rgb(255 , 255 , 255)&quot;&gt;&lt;b&gt;基础服务层&lt;/b&gt;&lt;/span&gt;" style="text;html=1;align=center;verticalAlign=middle;resizable=0;points=[];autosize=1;strokeColor=none;fillColor=none;fontSize=16;" parent="1" vertex="1">
          <mxGeometry x="1655" y="403" width="100" height="20" as="geometry" />
        </mxCell>
        <mxCell id="Q5UJTFhfFlcfxcYRVWW--83" value="&lt;span style=&quot;background-color: rgb(255 , 255 , 255)&quot;&gt;&lt;b&gt;存储层&lt;/b&gt;&lt;/span&gt;" style="text;html=1;align=center;verticalAlign=middle;resizable=0;points=[];autosize=1;strokeColor=none;fillColor=none;fontSize=16;" parent="1" vertex="1">
          <mxGeometry x="1675" y="488" width="60" height="20" as="geometry" />
        </mxCell>
        <mxCell id="Q5UJTFhfFlcfxcYRVWW--84" value="" style="shape=curlyBracket;whiteSpace=wrap;html=1;rounded=1;flipH=1;dashed=1;" parent="1" vertex="1">
          <mxGeometry x="1755" y="70" width="41" height="110" as="geometry" />
        </mxCell>
        <mxCell id="Q5UJTFhfFlcfxcYRVWW--85" value="&lt;font style=&quot;font-size: 16px&quot;&gt;外网&lt;/font&gt;" style="text;html=1;align=center;verticalAlign=middle;resizable=0;points=[];autosize=1;strokeColor=none;fillColor=none;" parent="1" vertex="1">
          <mxGeometry x="1786" y="115" width="50" height="20" as="geometry" />
        </mxCell>
        <mxCell id="Q5UJTFhfFlcfxcYRVWW--86" value="&lt;span style=&quot;background-color: rgb(255 , 255 , 255)&quot;&gt;&lt;b&gt;基础设施层&lt;/b&gt;&lt;/span&gt;" style="text;html=1;align=center;verticalAlign=middle;resizable=0;points=[];autosize=1;strokeColor=none;fillColor=none;fontSize=16;" parent="1" vertex="1">
          <mxGeometry x="1000" y="565" width="100" height="20" as="geometry" />
        </mxCell>
        <mxCell id="Ko98K4d0zsk7XQyS_z2Y-1" style="edgeStyle=orthogonalEdgeStyle;rounded=0;orthogonalLoop=1;jettySize=auto;html=1;exitX=0.5;exitY=1;exitDx=0;exitDy=0;entryX=0.5;entryY=0;entryDx=0;entryDy=0;sketch=1;curveFitting=1;jiggle=2;" edge="1" parent="1" source="Ko98K4d0zsk7XQyS_z2Y-2" target="Ko98K4d0zsk7XQyS_z2Y-32">
          <mxGeometry relative="1" as="geometry" />
        </mxCell>
        <mxCell id="Ko98K4d0zsk7XQyS_z2Y-2" value="&lt;font style=&quot;font-size: 18px&quot;&gt;IOS&lt;/font&gt;" style="rounded=0;whiteSpace=wrap;html=1;fillColor=#dae8fc;strokeColor=#6c8ebf;sketch=1;curveFitting=1;jiggle=2;" vertex="1" parent="1">
          <mxGeometry x="230" y="660" width="80" height="40" as="geometry" />
        </mxCell>
        <mxCell id="Ko98K4d0zsk7XQyS_z2Y-3" style="edgeStyle=orthogonalEdgeStyle;rounded=0;orthogonalLoop=1;jettySize=auto;html=1;exitX=0.5;exitY=1;exitDx=0;exitDy=0;entryX=0.5;entryY=0;entryDx=0;entryDy=0;sketch=1;curveFitting=1;jiggle=2;" edge="1" parent="1" source="Ko98K4d0zsk7XQyS_z2Y-4" target="Ko98K4d0zsk7XQyS_z2Y-32">
          <mxGeometry relative="1" as="geometry" />
        </mxCell>
        <mxCell id="Ko98K4d0zsk7XQyS_z2Y-4" value="&lt;font style=&quot;font-size: 18px&quot;&gt;Android&lt;/font&gt;" style="rounded=0;whiteSpace=wrap;html=1;fillColor=#dae8fc;strokeColor=#6c8ebf;sketch=1;curveFitting=1;jiggle=2;" vertex="1" parent="1">
          <mxGeometry x="360" y="660" width="80" height="40" as="geometry" />
        </mxCell>
        <mxCell id="Ko98K4d0zsk7XQyS_z2Y-5" style="edgeStyle=orthogonalEdgeStyle;rounded=0;orthogonalLoop=1;jettySize=auto;html=1;exitX=0.5;exitY=1;exitDx=0;exitDy=0;sketch=1;curveFitting=1;jiggle=2;" edge="1" parent="1" source="Ko98K4d0zsk7XQyS_z2Y-6">
          <mxGeometry relative="1" as="geometry">
            <mxPoint x="400" y="755" as="targetPoint" />
          </mxGeometry>
        </mxCell>
        <mxCell id="Ko98K4d0zsk7XQyS_z2Y-6" value="&lt;span style=&quot;font-size: 18px&quot;&gt;小程序&lt;/span&gt;" style="rounded=0;whiteSpace=wrap;html=1;fillColor=#dae8fc;strokeColor=#6c8ebf;sketch=1;curveFitting=1;jiggle=2;" vertex="1" parent="1">
          <mxGeometry x="490" y="660" width="80" height="40" as="geometry" />
        </mxCell>
        <mxCell id="Ko98K4d0zsk7XQyS_z2Y-7" style="edgeStyle=orthogonalEdgeStyle;rounded=0;orthogonalLoop=1;jettySize=auto;html=1;exitX=0.5;exitY=1;exitDx=0;exitDy=0;entryX=0.5;entryY=0;entryDx=0;entryDy=0;entryPerimeter=0;fontSize=18;sketch=1;curveFitting=1;jiggle=2;fillColor=#d5e8d4;strokeColor=#82b366;" edge="1" parent="1" source="Ko98K4d0zsk7XQyS_z2Y-8" target="Ko98K4d0zsk7XQyS_z2Y-15">
          <mxGeometry relative="1" as="geometry" />
        </mxCell>
        <mxCell id="Ko98K4d0zsk7XQyS_z2Y-8" value="&lt;font style=&quot;font-size: 18px&quot;&gt;zzYpmallLogic&lt;/font&gt;" style="rounded=0;whiteSpace=wrap;html=1;fillColor=#ffe6cc;strokeColor=#d79b00;sketch=1;curveFitting=1;jiggle=2;" vertex="1" parent="1">
          <mxGeometry x="135" y="862" width="130" height="40" as="geometry" />
        </mxCell>
        <mxCell id="Ko98K4d0zsk7XQyS_z2Y-9" style="edgeStyle=orthogonalEdgeStyle;rounded=0;orthogonalLoop=1;jettySize=auto;html=1;exitX=0.5;exitY=1;exitDx=0;exitDy=0;entryX=0.5;entryY=0;entryDx=0;entryDy=0;entryPerimeter=0;fontSize=18;sketch=1;curveFitting=1;jiggle=2;fillColor=#d5e8d4;strokeColor=#82b366;" edge="1" parent="1" source="Ko98K4d0zsk7XQyS_z2Y-10" target="Ko98K4d0zsk7XQyS_z2Y-21">
          <mxGeometry relative="1" as="geometry" />
        </mxCell>
        <mxCell id="Ko98K4d0zsk7XQyS_z2Y-10" value="&lt;font style=&quot;font-size: 18px&quot;&gt;zzBookLogic&lt;/font&gt;" style="rounded=0;whiteSpace=wrap;html=1;fillColor=#ffe6cc;strokeColor=#d79b00;sketch=1;curveFitting=1;jiggle=2;" vertex="1" parent="1">
          <mxGeometry x="525" y="862" width="130" height="40" as="geometry" />
        </mxCell>
        <mxCell id="Ko98K4d0zsk7XQyS_z2Y-11" style="edgeStyle=orthogonalEdgeStyle;rounded=0;orthogonalLoop=1;jettySize=auto;html=1;exitX=0.5;exitY=1;exitDx=0;exitDy=0;entryX=0.5;entryY=0;entryDx=0;entryDy=0;entryPerimeter=0;fontSize=18;sketch=1;curveFitting=1;jiggle=2;fillColor=#d5e8d4;strokeColor=#82b366;" edge="1" parent="1" source="Ko98K4d0zsk7XQyS_z2Y-12" target="Ko98K4d0zsk7XQyS_z2Y-17">
          <mxGeometry relative="1" as="geometry" />
        </mxCell>
        <mxCell id="Ko98K4d0zsk7XQyS_z2Y-12" value="&lt;font style=&quot;font-size: 18px&quot;&gt;zzuser&lt;/font&gt;" style="rounded=0;whiteSpace=wrap;html=1;fillColor=#e1d5e7;strokeColor=#9673a6;sketch=1;curveFitting=1;jiggle=2;" vertex="1" parent="1">
          <mxGeometry x="267" y="963" width="80" height="40" as="geometry" />
        </mxCell>
        <mxCell id="Ko98K4d0zsk7XQyS_z2Y-13" style="edgeStyle=orthogonalEdgeStyle;rounded=0;orthogonalLoop=1;jettySize=auto;html=1;exitX=0.5;exitY=1;exitDx=0;exitDy=0;entryX=0.5;entryY=0;entryDx=0;entryDy=0;entryPerimeter=0;fontSize=18;sketch=1;curveFitting=1;jiggle=2;fillColor=#d5e8d4;strokeColor=#82b366;" edge="1" parent="1" source="Ko98K4d0zsk7XQyS_z2Y-14" target="Ko98K4d0zsk7XQyS_z2Y-19">
          <mxGeometry relative="1" as="geometry" />
        </mxCell>
        <mxCell id="Ko98K4d0zsk7XQyS_z2Y-14" value="&lt;font style=&quot;font-size: 18px&quot;&gt;zzproduct&lt;/font&gt;" style="rounded=0;whiteSpace=wrap;html=1;fillColor=#e1d5e7;strokeColor=#9673a6;sketch=1;curveFitting=1;jiggle=2;" vertex="1" parent="1">
          <mxGeometry x="456" y="963" width="80" height="40" as="geometry" />
        </mxCell>
        <mxCell id="Ko98K4d0zsk7XQyS_z2Y-15" value="" style="shape=cylinder3;whiteSpace=wrap;html=1;boundedLbl=1;backgroundOutline=1;size=15;fontSize=18;fillColor=#b1ddf0;strokeColor=#10739e;sketch=1;curveFitting=1;jiggle=2;" vertex="1" parent="1">
          <mxGeometry x="180" y="1038" width="40" height="60" as="geometry" />
        </mxCell>
        <mxCell id="Ko98K4d0zsk7XQyS_z2Y-16" value="zzYpmallDB" style="text;html=1;align=center;verticalAlign=middle;resizable=0;points=[];autosize=1;strokeColor=none;fillColor=none;fontSize=18;sketch=1;curveFitting=1;jiggle=2;" vertex="1" parent="1">
          <mxGeometry x="145" y="1093" width="110" height="30" as="geometry" />
        </mxCell>
        <mxCell id="Ko98K4d0zsk7XQyS_z2Y-17" value="" style="shape=cylinder3;whiteSpace=wrap;html=1;boundedLbl=1;backgroundOutline=1;size=15;fontSize=18;fillColor=#b1ddf0;strokeColor=#10739e;sketch=1;curveFitting=1;jiggle=2;" vertex="1" parent="1">
          <mxGeometry x="287" y="1038" width="40" height="60" as="geometry" />
        </mxCell>
        <mxCell id="Ko98K4d0zsk7XQyS_z2Y-18" value="zzuserDB" style="text;html=1;align=center;verticalAlign=middle;resizable=0;points=[];autosize=1;strokeColor=none;fillColor=none;fontSize=18;sketch=1;curveFitting=1;jiggle=2;" vertex="1" parent="1">
          <mxGeometry x="262" y="1093" width="90" height="30" as="geometry" />
        </mxCell>
        <mxCell id="Ko98K4d0zsk7XQyS_z2Y-19" value="" style="shape=cylinder3;whiteSpace=wrap;html=1;boundedLbl=1;backgroundOutline=1;size=15;fontSize=18;fillColor=#b1ddf0;strokeColor=#10739e;sketch=1;curveFitting=1;jiggle=2;" vertex="1" parent="1">
          <mxGeometry x="476" y="1038" width="40" height="60" as="geometry" />
        </mxCell>
        <mxCell id="Ko98K4d0zsk7XQyS_z2Y-20" value="zzproductDB" style="text;html=1;align=center;verticalAlign=middle;resizable=0;points=[];autosize=1;strokeColor=none;fillColor=none;fontSize=18;sketch=1;curveFitting=1;jiggle=2;" vertex="1" parent="1">
          <mxGeometry x="440" y="1093" width="120" height="30" as="geometry" />
        </mxCell>
        <mxCell id="Ko98K4d0zsk7XQyS_z2Y-21" value="" style="shape=cylinder3;whiteSpace=wrap;html=1;boundedLbl=1;backgroundOutline=1;size=15;fontSize=18;fillColor=#b1ddf0;strokeColor=#10739e;sketch=1;curveFitting=1;jiggle=2;" vertex="1" parent="1">
          <mxGeometry x="570" y="1038" width="40" height="60" as="geometry" />
        </mxCell>
        <mxCell id="Ko98K4d0zsk7XQyS_z2Y-22" value="zzBookDB" style="text;html=1;align=center;verticalAlign=middle;resizable=0;points=[];autosize=1;strokeColor=none;fillColor=none;fontSize=18;sketch=1;curveFitting=1;jiggle=2;" vertex="1" parent="1">
          <mxGeometry x="548" y="1093" width="100" height="30" as="geometry" />
        </mxCell>
        <mxCell id="Ko98K4d0zsk7XQyS_z2Y-23" value="&lt;span style=&quot;font-size: 18px&quot;&gt;注册中心&lt;br&gt;&lt;br&gt;管理平台&lt;br&gt;&lt;br&gt;MQ平台&lt;br&gt;&lt;/span&gt;" style="rounded=0;whiteSpace=wrap;html=1;fillColor=#d5e8d4;strokeColor=#82b366;sketch=1;curveFitting=1;jiggle=2;" vertex="1" parent="1">
          <mxGeometry x="40" y="725" width="80" height="390" as="geometry" />
        </mxCell>
        <mxCell id="Ko98K4d0zsk7XQyS_z2Y-24" value="&lt;span style=&quot;font-size: 18px&quot;&gt;监控中心&lt;br&gt;&lt;br&gt;配置中心&lt;br&gt;&lt;br&gt;调度平台&lt;br&gt;&lt;/span&gt;" style="rounded=0;whiteSpace=wrap;html=1;fillColor=#d5e8d4;strokeColor=#82b366;sketch=1;curveFitting=1;jiggle=2;" vertex="1" parent="1">
          <mxGeometry x="670" y="725" width="80" height="390" as="geometry" />
        </mxCell>
        <mxCell id="Ko98K4d0zsk7XQyS_z2Y-25" value="" style="endArrow=classic;html=1;rounded=0;fontSize=18;exitX=0.5;exitY=1;exitDx=0;exitDy=0;entryX=0.5;entryY=0;entryDx=0;entryDy=0;sketch=1;curveFitting=1;jiggle=2;fillColor=#d5e8d4;strokeColor=#82b366;" edge="1" parent="1" source="Ko98K4d0zsk7XQyS_z2Y-8" target="Ko98K4d0zsk7XQyS_z2Y-12">
          <mxGeometry width="50" height="50" relative="1" as="geometry">
            <mxPoint x="260" y="1225" as="sourcePoint" />
            <mxPoint x="310" y="1175" as="targetPoint" />
          </mxGeometry>
        </mxCell>
        <mxCell id="Ko98K4d0zsk7XQyS_z2Y-26" value="" style="endArrow=classic;html=1;rounded=0;fontSize=18;exitX=0.5;exitY=1;exitDx=0;exitDy=0;entryX=0.5;entryY=0;entryDx=0;entryDy=0;sketch=1;curveFitting=1;jiggle=2;fillColor=#d5e8d4;strokeColor=#82b366;" edge="1" parent="1" source="Ko98K4d0zsk7XQyS_z2Y-8" target="Ko98K4d0zsk7XQyS_z2Y-14">
          <mxGeometry width="50" height="50" relative="1" as="geometry">
            <mxPoint x="210" y="912" as="sourcePoint" />
            <mxPoint x="330" y="973" as="targetPoint" />
          </mxGeometry>
        </mxCell>
        <mxCell id="Ko98K4d0zsk7XQyS_z2Y-27" value="" style="endArrow=classic;html=1;rounded=0;fontSize=18;exitX=0.5;exitY=1;exitDx=0;exitDy=0;entryX=0.5;entryY=0;entryDx=0;entryDy=0;sketch=1;curveFitting=1;jiggle=2;fillColor=#d5e8d4;strokeColor=#82b366;" edge="1" parent="1" source="Ko98K4d0zsk7XQyS_z2Y-10" target="Ko98K4d0zsk7XQyS_z2Y-14">
          <mxGeometry width="50" height="50" relative="1" as="geometry">
            <mxPoint x="210" y="912" as="sourcePoint" />
            <mxPoint x="480" y="973" as="targetPoint" />
          </mxGeometry>
        </mxCell>
        <mxCell id="Ko98K4d0zsk7XQyS_z2Y-28" value="" style="endArrow=classic;html=1;rounded=0;fontSize=18;exitX=0.5;exitY=1;exitDx=0;exitDy=0;entryX=0.5;entryY=0;entryDx=0;entryDy=0;sketch=1;curveFitting=1;jiggle=2;fillColor=#d5e8d4;strokeColor=#82b366;" edge="1" parent="1" source="Ko98K4d0zsk7XQyS_z2Y-10" target="Ko98K4d0zsk7XQyS_z2Y-12">
          <mxGeometry width="50" height="50" relative="1" as="geometry">
            <mxPoint x="610" y="945" as="sourcePoint" />
            <mxPoint x="350" y="882" as="targetPoint" />
          </mxGeometry>
        </mxCell>
        <mxCell id="Ko98K4d0zsk7XQyS_z2Y-29" style="edgeStyle=orthogonalEdgeStyle;rounded=0;orthogonalLoop=1;jettySize=auto;html=1;exitX=0.5;exitY=1;exitDx=0;exitDy=0;fontSize=18;sketch=1;curveFitting=1;jiggle=2;fillColor=#d5e8d4;strokeColor=#82b366;" edge="1" parent="1" source="Ko98K4d0zsk7XQyS_z2Y-32" target="Ko98K4d0zsk7XQyS_z2Y-34">
          <mxGeometry relative="1" as="geometry" />
        </mxCell>
        <mxCell id="Ko98K4d0zsk7XQyS_z2Y-30" style="edgeStyle=orthogonalEdgeStyle;rounded=0;orthogonalLoop=1;jettySize=auto;html=1;exitX=0.5;exitY=1;exitDx=0;exitDy=0;entryX=0.5;entryY=0;entryDx=0;entryDy=0;sketch=1;curveFitting=1;jiggle=2;fillColor=#d5e8d4;strokeColor=#82b366;" edge="1" parent="1" source="Ko98K4d0zsk7XQyS_z2Y-32" target="Ko98K4d0zsk7XQyS_z2Y-8">
          <mxGeometry relative="1" as="geometry" />
        </mxCell>
        <mxCell id="Ko98K4d0zsk7XQyS_z2Y-31" style="edgeStyle=orthogonalEdgeStyle;rounded=0;orthogonalLoop=1;jettySize=auto;html=1;exitX=0.5;exitY=1;exitDx=0;exitDy=0;entryX=0.5;entryY=0;entryDx=0;entryDy=0;sketch=1;curveFitting=1;jiggle=2;fillColor=#d5e8d4;strokeColor=#82b366;" edge="1" parent="1" source="Ko98K4d0zsk7XQyS_z2Y-32" target="Ko98K4d0zsk7XQyS_z2Y-10">
          <mxGeometry relative="1" as="geometry" />
        </mxCell>
        <mxCell id="Ko98K4d0zsk7XQyS_z2Y-32" value="&lt;font style=&quot;font-size: 18px&quot;&gt;zzentry&lt;/font&gt;" style="rounded=0;whiteSpace=wrap;html=1;fillColor=#d5e8d4;strokeColor=#82b366;sketch=1;curveFitting=1;jiggle=2;" vertex="1" parent="1">
          <mxGeometry x="200" y="755" width="400" height="40" as="geometry" />
        </mxCell>
        <mxCell id="Ko98K4d0zsk7XQyS_z2Y-33" style="edgeStyle=orthogonalEdgeStyle;rounded=0;orthogonalLoop=1;jettySize=auto;html=1;exitX=0.5;exitY=1;exitDx=0;exitDy=0;entryX=0.5;entryY=0;entryDx=0;entryDy=0;entryPerimeter=0;sketch=1;curveFitting=1;jiggle=2;fillColor=#d5e8d4;strokeColor=#82b366;" edge="1" parent="1" source="Ko98K4d0zsk7XQyS_z2Y-34" target="Ko98K4d0zsk7XQyS_z2Y-35">
          <mxGeometry relative="1" as="geometry" />
        </mxCell>
        <mxCell id="Ko98K4d0zsk7XQyS_z2Y-34" value="&lt;font style=&quot;font-size: 18px&quot;&gt;zzGameLogic&lt;/font&gt;" style="rounded=0;whiteSpace=wrap;html=1;fillColor=#ffe6cc;strokeColor=#d79b00;sketch=1;curveFitting=1;jiggle=2;" vertex="1" parent="1">
          <mxGeometry x="335" y="862" width="130" height="40" as="geometry" />
        </mxCell>
        <mxCell id="Ko98K4d0zsk7XQyS_z2Y-35" value="" style="shape=cylinder3;whiteSpace=wrap;html=1;boundedLbl=1;backgroundOutline=1;size=15;fontSize=18;fillColor=#b1ddf0;strokeColor=#10739e;sketch=1;curveFitting=1;jiggle=2;" vertex="1" parent="1">
          <mxGeometry x="380" y="1038" width="40" height="60" as="geometry" />
        </mxCell>
        <mxCell id="Ko98K4d0zsk7XQyS_z2Y-36" value="zzgameDB" style="text;html=1;align=center;verticalAlign=middle;resizable=0;points=[];autosize=1;strokeColor=none;fillColor=none;fontSize=18;sketch=1;curveFitting=1;jiggle=2;" vertex="1" parent="1">
          <mxGeometry x="350" y="1093" width="100" height="30" as="geometry" />
        </mxCell>
        <mxCell id="Ko98K4d0zsk7XQyS_z2Y-37" value="" style="endArrow=classic;html=1;rounded=0;fontSize=18;exitX=0.5;exitY=1;exitDx=0;exitDy=0;entryX=0.5;entryY=0;entryDx=0;entryDy=0;sketch=1;curveFitting=1;jiggle=2;fillColor=#d5e8d4;strokeColor=#82b366;" edge="1" parent="1" source="Ko98K4d0zsk7XQyS_z2Y-34" target="Ko98K4d0zsk7XQyS_z2Y-14">
          <mxGeometry width="50" height="50" relative="1" as="geometry">
            <mxPoint x="210" y="912" as="sourcePoint" />
            <mxPoint x="503" y="973" as="targetPoint" />
          </mxGeometry>
        </mxCell>
        <mxCell id="Ko98K4d0zsk7XQyS_z2Y-38" value="" style="endArrow=classic;html=1;rounded=0;fontSize=18;exitX=0.5;exitY=1;exitDx=0;exitDy=0;entryX=0.5;entryY=0;entryDx=0;entryDy=0;sketch=1;curveFitting=1;jiggle=2;fillColor=#d5e8d4;strokeColor=#82b366;" edge="1" parent="1" source="Ko98K4d0zsk7XQyS_z2Y-34" target="Ko98K4d0zsk7XQyS_z2Y-12">
          <mxGeometry width="50" height="50" relative="1" as="geometry">
            <mxPoint x="600" y="912" as="sourcePoint" />
            <mxPoint x="317" y="973" as="targetPoint" />
          </mxGeometry>
        </mxCell>
      </root>
    </mxGraphModel>
  </diagram>
</mxfile>
